<svg version="1" xmlns="http://www.w3.org/2000/svg" width="888" height="888" viewBox="0 0 666.000000 666.000000"><path d="M33.5 41.9c-11 2.7-17.9 11.7-17.9 23.1v6.5l86.7 173.3L189 418l-27.6 55.2c-29.5 59-30 60.2-27.5 69.6 4.3 15.8 26.4 21.8 38.5 10.4 1.7-1.6 10.7-18.5 22.8-42.7l20-40 20.2 40.1c11 22.1 20.7 40.8 21.3 41.6.7.8 3.6 2.7 6.4 4.2 9.3 5.1 22 3 28.5-4.7 1.4-1.7 24.5-46.9 51.2-100.4 26.8-53.5 48.9-97.3 49.2-97.3.3 0 22.6 44.1 49.5 98 32.3 64.7 50 99.1 52 101 6.5 6.3 17.1 8.1 25.5 4.3 5.8-2.5 11.6-9 13.1-14.5 2.6-9.7 3.7-7.1-51-116.6L430 324h65l56.1 112.2c35.6 71.4 57.2 113.5 59.2 115.6 4.8 5 10.1 7.4 16.6 7.4 13.9 0 23.5-9.6 23.5-23.2v-6.5l-52.3-104.4c-28.7-57.4-52.1-104.4-51.9-104.6.2-.2 3.8-1.3 8.2-2.5 41.9-11.7 74.5-42.8 88.6-84.6 11.6-34.3 10.1-79-3.6-111.1-18.3-42.7-52.9-69.6-101.7-79-8.3-1.6-16.3-1.8-80.7-1.8-71.3 0-71.5 0-75.5 2.2-2.2 1.1-5.2 3.4-6.7 5-1.4 1.5-37.9 73.4-81.1 159.8l-78.4 157-79.1-158.2C59.6 54.3 56.9 49 52.8 46.2c-6.7-4.6-12.6-5.9-19.3-4.3zm437.4 46.8c0 .5-4.9 10.5-10.8 22.3l-10.8 21.5-10.7-21.3C432.8 99.6 428 89.6 428 89c0-.6 7.7-1 21.5-1 11.8 0 21.5.3 21.4.7zm67.2 3.4c37.4 9.2 61.5 39 64.8 79.9 3.1 39.1-10.4 71.5-37.3 89.4-10 6.6-26.2 12.5-38.8 14.1l-5.7.7-22.7-45.3-22.6-45.4 23.8-47.7c27.4-54.9 22.9-49.5 38.5-45.7zM401.4 228.2L377 277h-32c-20.7 0-32-.4-32-1s18.1-37.1 40.1-81.2l40.1-80.3 16.3 32.5 16.3 32.5-24.4 48.7zm72.5 48c.1.5-9.8.8-21.9.8h-22l11.1-22.2 11.1-22.3 10.9 21.5c5.9 11.8 10.8 21.8 10.8 22.2zm-121.5 50c-.4 1.3-18.1 37.2-39.4 79.8l-38.8 77.5-16.3-32.7-16.4-32.8 23.5-47 23.5-47h64.6l-.7 2.2z"/><path d="M338.7 513.4c-6 1.6-11.5 6-14.7 11.7-3.1 5.5-3.3 15.5-.6 20.9 1 1.9 9.3 11 18.4 20.2l16.6 16.8-17.1 17.3c-16.1 16.2-17.2 17.6-18.8 23.1-5.4 18.4 10.7 34.5 29.1 29.1 5.5-1.6 6.9-2.7 23.2-18.8l17.3-17.1 16.7 16.6c9.2 9.1 18.3 17.4 20.2 18.4 2.3 1.2 5.8 1.8 10.1 1.8 5.7 0 7.4-.4 11.5-3 2.7-1.6 6.2-4.9 7.9-7.2 2.5-3.7 3-5.5 3.3-11.6.6-10.4-1.1-13.1-20.1-32.4L425.6 583l16.1-16.3c9-9.1 17-18.1 18.2-20.4 1.5-3 2.1-6.1 2.1-10.5 0-14.9-13.4-25.9-27.6-22.8-2.6.6-5.6 1.6-6.8 2.2-1.1.6-9.6 8.5-18.8 17.6L392 549.4l-16.2-16.1c-9-8.8-18.1-17-20.3-18-5.5-2.8-11.1-3.4-16.8-1.9z"/></svg>